<svg xmlns="http://www.w3.org/2000/svg" xmlns:xlink="http://www.w3.org/1999/xlink" width="1420" height="553" viewBox="0 0 1420 553">
  <defs>
    <clipPath id="clip-path">
      <rect id="Rectangle_176" data-name="Rectangle 176" width="1420" height="553" transform="translate(0 3686)" fill="#262626" stroke="#333" stroke-width="1"/>
    </clipPath>
  </defs>
  <g id="Mask_Group_3" data-name="Mask Group 3" transform="translate(0 -3686)" clip-path="url(#clip-path)">
    <g id="noun_Globe_884170" transform="translate(877.18 3635)">
      <g id="Group_433" data-name="Group 433" transform="translate(0 0)">
        <path id="Path_5869" data-name="Path 5869" d="M106.34,583.1A337.293,337.293,0,0,1,91.408,106.4l.057-.062,0,0,0,0a337.292,337.292,0,0,1,476.7-14.932l.065.057,0,0,0,0a337.3,337.3,0,0,1,14.929,476.706l-.057.062,0,0,0,0a337.3,337.3,0,0,1-476.7,14.929l-.062-.057,0,0,0,0ZM5.765,347.714A330.633,330.633,0,0,0,110.244,579.078l.065.057,0,0,0,0a331.665,331.665,0,0,0,468.765-14.807l.057-.065,0,0,0,0A331.668,331.668,0,0,0,564.329,95.494l-.065-.057,0,0,0,0a331.667,331.667,0,0,0-468.769,14.81l-.057.065,0,0,0,0A330.67,330.67,0,0,0,5.764,347.715Z" transform="translate(0 0)" fill="#121212"/>
        <path id="Path_5870" data-name="Path 5870" d="M182.679,560.6h0m65.589-42.408h0m0,0h0M171.35,199.468h0m42.941-31.388h0m-3.776-16.436h0m47.544-16.887h0M153.186,122.83h0M186.45,84.224h0m0,0h0M138.911,84.1h0m43.768-13.278h0m0,0h0M104.226,84.675h0m83.64-24.3h0M156.96,65.533h0m0,0h0M230.926,32.6h0m-13.567,1.034h0M307.84,11.519h0M519.827,197.983h0m13.567-13.405h0M510.745,96.02h0M489.626,55.414h0M181.145,572.139a9.141,9.141,0,0,0-1.533.643,9.131,9.131,0,0,1,1.533-.643,22.872,22.872,0,0,0,2.238,1.87,20.923,20.923,0,0,0-1.411,5.028,29.175,29.175,0,0,0-.827,3.286c2,.323,4.008.581,6.014.9-.708.839-1.3,1.677-1.887,2.451-1.89,2.708.354,6.122,2.125,9.218a.83.83,0,0,0,.235.45q.71,1.351,1.416,2.708c.47.966.354.771.824,1.674a17.715,17.715,0,0,0,1.3,2.062c5.071,8.507.708,3.289,5.663,6.96,1.3.969,1.062.646,1.062,1.742-.119.193-.238.323-.238.513,2.6,4,8.261,6.445,11.915,9.476a1.707,1.707,0,0,1,.476.388,46.108,46.108,0,0,0,5.147,3.348q3.731,1.4,7.482,2.705c.711-.2,1.436-.416,2.232-.705.116.323.116.45.235.708a2.544,2.544,0,0,0,.32.952l2.006.674a12.807,12.807,0,0,0-.32-1.816c1.652-.518,2.595-.068,5.309-1.484-1.652-2.708-2.36-1.612-3.773-2.255a32.759,32.759,0,0,1-8.493-6.19c-.827-1.159-1.652-2.32-2.36-3.544-2.244-4.059-4.249-5.156-6.49-10.181,5.074-2.708,2.125-.841,2.714-5.739,1.3-1.674,2.595-3.414,4.011-5.025-.119-.261-.235-.773-.235-.646-.119.127-.119-2.128-3.541-4.062-1.771-.966-3.535-2.125-5.309-3.221v-4.771c1.533,0,3.068-.065,4.6,0-.354-2.705-.589-5.414-.824-8.187,1.533-.513,3.068-1.1,4.6-1.609-1.178-5.221-.708-3.094-4.484-4.771-2.827-1.354-.708.581-2.241-1.932-.119-.2-.235-.388-.354-.581a24.664,24.664,0,0,1-1.3-2.836c10.856,4.382,9.558,2.963,9.085-6.575,13.212,1.935,14.156-1.159,15.807-9.8-1.771-3.031-1.652-1.161-2.595-3.159a31.8,31.8,0,0,1-.943-3.159,4.316,4.316,0,0,0-1.889-2.255c-.47-.45-.943-.773-1.3-1.161,3.187.453,7.431,4,11.561,3.094,2.714-.578,3.422-2.705,4.484-4.96,1.178-2.45,1.887-5.031,3.419-7.286,6.606-9.731,2.595-4.125,5.9-11.924,1.416-3.351,3.9-4.51,3.776-8.569-.119-5.289-3.776-7.544,2.125-13.346,3.181-3.094,4.008-2.64,7.9-2.32.119-5.479,3.068-3.867,11.326-4.252,1.062-2.705,1.062-2.448,3.776-3.8,0-6.575,3.3-9.025,3.776-15.343.47-5.929,2.711-10.762,1.887-16.691a37.5,37.5,0,0,1-.476-6.382c.241-3.932.241-2.836,2.125-5.028,2.714-3.028,2.949-6.38,7.314-11.473a35.447,35.447,0,0,0,2.714-4.252c-.235-7.153-.47-14.309-.705-21.592-10.739-.385-10.031-9.411-17.581-11.215-3.065-.708-5.074.646-9.2-1.031-7.2-2.836-5.074,2-8.731-6.963-2.711,1.034-2.006,1.292-4.365-.059-2.714-1.68-5.9-1.807-8.612-3.161-4.363-2.193,2.949,1.807-.943-.578a3.048,3.048,0,0,1-.824-.646,17.253,17.253,0,0,1-4.839-3.867c-.47-.708.238-1.419.354-2.193.354-3.479-3.184-5.283-4.011-10.119-1.178-6.317-.589-3.674-4.13-7.091s2.479,2.963-.822-.836c-8.85-9.991-16.4-.453-22.889-10.83-3.062-4.963-3.535-5.734-9.2-7.153,1.178-5.609.708-3.8-6.844-8.057,1.181-.451,2.479-1.031,3.776-1.547-2.122-.9-2,.45-5.19,0-4.484-.581-3.3-6.51-6.136,2.448-7.431.065,0-2.062-12.739-1.482-.827-1.482-.473-2.255-1.89-3.289-1.414-1.156-2.83-2.32-4.246-3.541-3.538-1.227-1.884,1.674-3.065,3.091-1.533,1.935-3.422.708-5.193-.127,1.3-.773,2.6-1.55,3.9-2.385a19.394,19.394,0,0,1-1.652-2.255c-4.365,1.093-3.776,3.674-10.382,5.028a.668.668,0,0,0-.47.127c-.119.062-.354.062-.473.127a1.5,1.5,0,0,0-.47.193c-6.49,2.127-3.776,2.323-6.017,6.833-.946,2,0,.065-.946,1.227-.116.127-.235.193-.354.323-1.416,1.479-3.065,1.867-4.952,2.513-1.062-2.836-4.13-4.255-7.079-4.382-2.006,0-5.19,2.193-7.314,3.224a17.443,17.443,0,0,1-1.768-1.227,2.3,2.3,0,0,0-.354-.388c-.119-.127-.354-.258-.473-.385-1.652-1.677-3.184-3.289-4.717-5.028a6.04,6.04,0,0,1-.357-5.094c.592-2.9.476-3.221,1.065-6.445.47-3.156,3.654-6.249.824-9.15-.238-.2-1.771-1.292-1.771-1.292-1.768-1.156-.586-.708-2.476-1.093-1.533-.385-1.887-.062-3.184-.516-.592-.581-1.181-1.224-1.771-1.807a7.749,7.749,0,0,0-.827,1.55v-1.484c-2.241.584-1.062-.127-2.241,1.55a12.546,12.546,0,0,1,2.241-.065c-2.827.516-5.544,1.159-8.255,1.739.589-2.317,1.3-4.51,2.006-6.9a1.456,1.456,0,0,1,.235-.581c2.238-3.351,2.592-4.255,4.008-8.765,1.771-5.8-.235-.646,2.125-3.416,1.178-1.354.824-1.161,1.416-5.025-4.011-.646-12.15.966-13.921,2.51-4.836,3.935,1.887,7.156-9.2,10.119-8.847,2.32-6.136,2.516-10.5.388-2.006-.966-1.771-.127-2.949-2.127-1.062-2.125-2.006-4.252-2.949-6.382-.827-3.8.47.261-.119-2.963-.589-2.963-1.062-.323-.943-3.544,0-.581,1.414-5.544,1.768-6.833,1.181-3.416,2.244-3.932,3.306-6.252,3.422-6.96-3.306-5.541,7.312-11.989,4.72-2.9,7.433-5.734,13.448-4.833,9.436,1.416.354,1.351,13.212,1.1-.589-2,0-.646-.708-2.258,1.416-.516,1.535-1.289,3.306-2.19,4.6-2.255,5.425-.9,10.261,1.031,2.006-.839,4.011-1.742,6.017-2.581,1.771,3.612.238,1.354,2.949,5.156-1.652,3.292-2,5.093-.827,9.091.943,2.771.943,2.062,2.125,3.8.589,1.484,1.178,2.966,1.771,4.255-1.3.581-2.6,1.093-3.776,1.677,9.558-.584,9.912-10.507,8.85-18.241-1.181-8.507-3.187-10.892,7.547-18.113,4.72-3.221-.354-1.289,6.725-5.091,3.422-1.87-.354-.969,5.779-3.8,2.36-1.159,1.416-.708,2.714-2,1.771-1.677,2.479,1.227,3.66-2.578.589-1.932-.119-4.255.47-6.575,1.181-4.187,5.309-3.867,5.779-9.28,5.193-2,3.068-5.671,9.558-8.184,8.609-3.416,1.062-3.354,11.561-3.416,1.768-3.031,1.414-1.87,1.414-4.836-.824.323-1.533.643-2.241.966.589-7.669,5.547-7.538,11.326-10.377,2.714-1.416,1.887-1.739,6.014-2,0,9.731,3.422,2.643,11.445-.581,2.711-1.224,4.363-1.935,7.2-3.351,0,0,1.416-.708,1.533-.773.235-.13.354-.258.473-.323.235-.13.354-.193.589-.32,1.416-.966,2.949-1.807,4.484-2.773-.354-1.739-.589-3.674-.827-5.606-3.892,1.416-2.006,3.091-6.017,4.51v-1.612c-1.533.068-3.068.193-4.484.258-1.414-2.51-.116-1.416-2.238-2.963-.589,2.127.235.839-1.535,1.609.238-3.093,3.187-6.249,5.309-9.923-5.425-2.385-4.363-.581-9.79-.065,3.184-1.609,6.487-3.224,9.79-4.768v.32a2.222,2.222,0,0,0,.116.453c1.181,3.864,2.952,3.091,8.142,3.416-.708-2.839-.943-2.323-4.72-3.547-.708-.258-1.416-.513-2.122-.839,13.564-1.028,9.907,2.127,19.819-5.348,1.887-1.419,2.241-1.093,5.9-1.612a108.214,108.214,0,0,0-7.079,8.507c-2.83,3.544-2.595,2.32-4.127,4-1.652,1.8-1.771,3.224-2.36,5.671,3.422-.193,6.96-.516,10.5-.836-.827,1.416-1.533,2.833-2.241,4.252,4.482-1.547,2.949-.45,6.014-3.8,4.6,0,1.416.2,2.009,1.354.351.839.705,1.742,1.059,2.516,2.36-.839,2.833-1.031,4.249-3.159,2.476-3.419.705-8.249-.473-13.535-1.533.708-3.068,1.416-4.6,2.062-.354-1.031,1.416-.771-1.416-2.32v-1.612c5.428-.643,1.533.323,3.422-3.867,1.3-3.031.119,1.674,1.062-2.255,2.241-1.1.354-.193.589-2.9.235-1.739.589-3.547.943-5.414-3.538-2.193-2.241.193-3.776-6.122-3.892,1.221-5.544-1.55-8.374-4.836,3.065-5.221.827-8.637-1.416-18.5-1.768.839-4.836,5.221-6.606,6.572-2.833,1.612-5.66,3.159-8.493,4.705a19.444,19.444,0,0,1-1.535-2.32c1.416-2.9,3.776-6.057,3.776-9.215a18.791,18.791,0,0,1-3.776.127c-3.065-.127-1.3,0-2.006-1.221-1.059-2.385-.235-1.161-4.011-5.159-1.059.193-2.119.258-3.065.388-.47.9-.943,1.739-1.414,2.578-7.436-4.19-12.034,3.606-15.1,7.218.473,1.224.943,2.513,1.416,3.739-2.36,2.19-4.72,4.382-6.96,6.51,1.059.9,2.122,1.739,3.184,2.643-1.533,3.544,0,7.476-10.38,12.439-7.55,3.8-4.958-.323-8.374,14.436-4.6,2.578,2.592-3.544-6.844,4.059-.589-1.677-1.062-3.479-1.535-5.283,2.006-1.227,2.244,1.932,3.422-.9,1.062-2.45.238-1.419-.589-1.938-.119-.062-.354-.128-.354-.193-.119-.062-.354-.062-.473-.13a6.767,6.767,0,0,1-1.178-.062c.943-2.643,1.887-5.416,2.949-8.184-5.428-.388-7.312,1.159-12.5-1.615-5.074-2.768-2.949-4.64-12.385-3.351.235-2,.47-4.125.824-6.184-1.062.127-2.122.258-3.068.45.238-3.159,1.181-3.419,3.187-5.674,3.3-3.737,5.779-5.414,9.436-7.991,1.652-1.1,3.3-2.258,4.955-3.414a2.107,2.107,0,0,0,.354-.13c3.3-1.87,3.657-1.807,6.487-4.127,7.552-6.507,2.125,1.742,18.521-12.116-2.83,3.161-5.544,6.255-8.258,9.346,3.892-.643,3.657.261,5.309,1.419,3.422-2.966,5.663-3.8,9.79-5.351,2.006,5.093,5.663-.9,6.844-2.32-5.547-.065,2.238,1.034-6.844-3.224,1.062-2.059,1.771-.9,2.952-2,3.065-2.9-1.771,2.516.47-.9,1.062-1.547.827-.966,1.652-1.419a1.451,1.451,0,0,0,.473-.193,6.644,6.644,0,0,0,.943-.516c3.654-2.19,5.9-2.578,7.076-4.575.473-.773.119-.388.708-1.739.589-1.807-1.416-.711,3.9-3.547-.354-1.547-.592-3.093-.827-4.64,4.72-.516,3.3.32,6.841.708-.589.9-1.062,1.739-1.535,2.578,2.244-1.289,4.484-2.643,6.725-4a38.54,38.54,0,0,0,.827,3.935c-1.771.966-3.541,2-5.309,3.028v3.286c9.909-1.224,1.887-2.516,9.909-3.8,2-.258,2-.127,4.011-2-.119,1.161-.238,2.255-.354,3.351-2.479.453-1.535.258-3.419,1.484-10.974,7.218-1.062,4.059-7.079,6.572-1.181.518-4.365.584-7.079.711-3.065.258-.235-.773-6.487,3.609.47,2.065-.119.711.708,2.32-.592.646-1.062,1.224-1.535,1.742.473-.065.943-.065,1.535-.13a6.805,6.805,0,0,0-.708,2.516c.708-.13,1.414-.2,2.241-.323-.589-2.193.119-1.161-1.533-2.193V85.771c2.714,1.159,5.779-.516,9.436-1.419,4.127-1.028,3.3-.513,4.955,3.8,1.771,4.705-.473.9,7.2,3.609,2.595.45,5.19.9,7.788,1.224V94.6c.943-.062,2-.193,3.068-.32V90.992c-2.244.969-1.181.516-3.068,2,.116-.9.354-2,.589-3.156-.943-1.031-1.887-2-2.833-3.028,2.714.966,5.428,2.062,8.258,3.093,3.776-6.513,3.068-3.87,3.068-10.96-1.535-.13-3.068-.13-4.484-.32V75.392c1.181-.643,2.479-1.351,3.776-2.06,1.416,1.739,2.949,3.414,4.484,5.156,2.595-1.031,1.178-.773,2.946-2.062.122-.127.357-.258.476-.385,4.833-3.416,2.473-.9,7.9-6.317-1.768-3.544.473-1.677-2.83-2.513-.592-.13-.708.193-1.535-.323a1.261,1.261,0,0,1-.47-.518c-3.66-3.671-.708-.836-4.717-2.317-1.181-.323-2.244-.581-3.306-.9,1.535-.643,3.068-1.416,4.6-2.193-1.062-5.025-.122-5.541-4.72-6.7-2.244-.513-.354.453-2.006-.45a1.613,1.613,0,0,1-.473-.646c-3.068-3.479,3.187,1.677-.708-.966-1.652.323-3.3.453-4.952.643-1.535-2.448-3.068-5.025-4.484-7.476-5.428.646-9.082.708-12.15,1.161-1.416.193-4.011,1.354-5.428,1.547a5.413,5.413,0,0,1-1.416-.258,2.488,2.488,0,0,0-.47-.13c-10.853-2-17.224,8.059-22.059,14.181,2.476,3.674,3.422,2.836,7.547,2.32-4.833,5.416-.354,4.32-9.79,7.541.238-.836.473-1.612.708-2.448-.47-.323-1.533-1.031-1.652-1.161-2.241-.323-4.482-.513-6.6-.773,3.3-3.674,1.3-1.87,2.006-6.059.354-2.578.941-4.448,4.127-5.541,1.3-.453,4.011.127,9.674-4.125.943-.9,2-1.807,3.065-2.773-2.36.323-4.6.581-6.841.9.119-.255.354-.836.354-.771.119.193.354-.388.473-.643.824-1.292,1.652-2.581,2.595-4.062.589-1.161-2.595.062,4.836-3.547-1.062,2.32-2,4.575-2.952,6.768q7.079-.769,14.159-1.544a26.887,26.887,0,0,0,3.3-.323c4.6-.649,15.1-.453,17.224-6.833,3.068-2.32,6.133-4.578,9.317-6.963,2.244-2.32,8.612-3.544,12.15-5.479,3.541-2.059,2.125-2.382,4.6-3.864,6.487-1.677,13.093-3.482,19.7-5.159.589.776,1.178,1.419,1.768,2.127-4.479,2.708-20.405,3.286-21.821,6.252-1.181,2.578,2.479.643-.589,1.935q-.888,1.062-1.771,2.125c1.178.388,2.476.708,3.776,1.031,2.476,1.55-.354.966,2.241,2.385,5.425,3.224,16.4-6.768,24.3,2.193.473.516.943,1.1,1.416,1.612-1.533.578-.708-.13-1.3.839-1.89,2.9,2.592-1.55.235,3.8-1.178,2.45-2.36,4.9-3.538,7.286a33.471,33.471,0,0,0,3.773,1.354c-3.538,1.354-3.657,2.771-5.19,6.187,2.36.771,2.714,3.156,8.963-.646-1.765,7.737-1.533-2.513-10.38,8.38-1.771,2.255-.943,1.224-1.181,2.255a21.668,21.668,0,0,0-.589,2.45c-.589,2.255-.589,2.062,0,3.867,1.416,4.643-.116,4.513.354,7.476.354,2.127.827,1.484,1.89,4.966,0,.127.116.323.116.448.943,2.643,2.006,5.289,3.068,7.864,4.957-.385,3.422-1.674,8.02,1.547a2.129,2.129,0,0,1,.473.323c6.96,4.708,9.2-7.153,15.218-12.827a21.365,21.365,0,0,0,2.949-2.9c1.3-2,2.714-4.062,4.127-6.19,2.714-3.8,7.907-2.513,12.037-4.448,3.065-1.354,4.833-2,7.431-4.059,12.266-9.28,2.83-3.8,22.3-8.184,4.244-.969,6.6-2.581,10.734-4.32.116-.062.354-.127.473-.193.586-.2,1.176-.388,1.765-.643.119-.065.354-.13.595-.258,1.057-.646,2.238-1.292,3.416-2,1.181-1.1.827-.516,1.535-1.87,1.771-3.867-.589-3.351.235-6.314,1.062-3.935,2.006-3.547,3.187-4.127.824-.385,1.771-.773,2.714-1.159.232-.065.351-.258.47-.323.116-.127.354-.323.473-.45.119-.065.232-.261.351-.32,1.062-.453,2.125-.969,3.3-1.55-.47-1.419-.708-.065-.824-3.351,2.006-.258,4.011-.581,6.136-.966-1.416-.388-2.833-.841-4.13-1.227-1.652-1.093-1.062-1.737-4.249-3.674,1.535,0,3.068-.062,4.6-.062v3.414c.47,0,.943-.062,1.416-.062.824-3.8,1.533-2.705,2.36-6,2.241-.643,1.652,0,2.241-2.51-2.006.578-.589-.065-2.241.836V17.128c-.827.065-1.654.065-2.36.065,2.241-1.419,4.6-2.771,6.96-4.255l.47-.258c5.074-2,10.147-4.059,15.218-5.867-12.858-3.286-6.96,2.32-18.875-1.479-1.062.836-2.006,1.737-2.949,2.575V3.72c-9.317-.708-9.79-2.32-22.062-2.125-.232,0-.467.062-.586.062-6.371.2-29.374,1.161-34.921,3.354-4.717,2,3.657-1.739-1.062.516-4.833,2.382-3.181-.258-8.728,1.867-2.36.2-4.72.453-7.076.516-9.085-1.221-11.564,3.8-16.989,1.1-1.768-.258-3.538-.708-5.19-1.1a55.872,55.872,0,0,0-6.017.193c-10.5.776-22.532.969-33.15,4-10.85,3.414-.354.705-10.5,2.32-5.425,1.479-10.85,3.028-16.278,4.448-1.89,1.289-1.062.127,1.178,3.541-9.082,1.1,4.839-7.669-21.113,4.643.47,2.643-.119.45.824,2.193,1.295,2.385,1.887,2,5.19,3.348-.238.133-.473.133-.473.453-.235.773-1.062.323-1.887,2-.47.773-.351.581,0,1.935-3.654,1.351-4.717.9-8.258.255,1.535-.385,3.068-.9,4.6-1.351-.592-2.32,0-1.224-1.535-2.255-.708-1.742-2.833-2.45-4.72-2.32-1.3,1.739-2.476,3.416-3.657,5.156,1.533.258,3.068.646,4.6.9-7.312,1.031-7.547.13-8.02,2.839-.354,2.448,4.952,1.674-4.839,3.737,1.535-1.612.708-.127,2.244-3.479-4.365-.453-10.5,1.351-15.1,2.575-1.3-3.482.589.966,1.062-2.127a24.027,24.027,0,0,0-2.479-1.354c-2.36,5.544,2.36-2-3.068,7.606,2.714,1.357,1.771.261,4.722,1.227,3.773,1.289,6.725-.581,10.38-2.578a6.009,6.009,0,0,1,.354,3.416c-1.649,3.994-.473-2.385-6.841,7.541a7.681,7.681,0,0,1-4.13,3.609c1.181-1.612,2.36-3.224,3.657-4.9,5.074-8.442-8.02-2.062-8.142-2-1.059,1.55-2.119,2.966-3.062,4.513-4.957.453-1.3-3.159-7.552,2.963,3.422.646,3.184,1.354,4.6,3.8,3.776-.773,3.306-1.354,6.722-2.127-.586.9-1.057,1.8-1.533,2.581-.116.125-.235.32-.351.448-.943,1.612-1.771,3.289-2.595,4.966-3.66-.711.589-.649-2.6-.9-4.955-.258-.116,1.547-10.261,3.994.708-1.416,1.411-2.771,2.238-4.252-3.184.45-2.357.45-6.014-2,4.011-1.8.708-1.8,4.365-5.671,3.065-3.482.235,1.034,5.425-5.544-2.241-.643-2.83-.578-6.487,1.612-2.595,1.935-5.193,3.932-7.788,5.932-1.771-.518-3.535-.966-5.306-1.354-.943,2.578.708,1.547-2.714,1.289-4.011-.323-6.017-.841-7.785-3.87-5.9,1.161-16.516,1.419-19.821,4.513-1.768,1.612.946.388-2.949,2.9-6.957,5.028-3.419,2.062-11.207,9.025.943.643,2.006,1.416,3.068,2.127,6.255-1.55,9.555-4.127,14.983-7.156-2.714,7.091-1.3,1.224-2.125,5.737-.235,1.159.119.127-.824,1.612-2.244,3.093-1.416,1.031-.827,3.8-4.484.966-5.071.9-9.909.323a3.152,3.152,0,0,0-1.062-.258c-4.127-.326-4.482,1.093-7.788,2.19.241-.773.473-1.544.708-2.385-2.592,1.677-5.071,3.227-7.547,4.836V82.743c-3.187,1.547-1.3,1.482-4.13,2.833-4.363,2-.473-1.286-9.909,3.031-9.521,4.391-7.17,2.552-8.1,2.742A337.25,337.25,0,0,0,4.024,235.683l3,.909a20.514,20.514,0,0,0-.943,2.708c-.473.45-.946.9-1.416,1.419a5.162,5.162,0,0,0,2.241.385c-.589-1.674,0-.516-.824-1.8.354-.193.708-.388,1.059-.581,1.181-.516.238-.839,1.535-.45,2,.643.354,11.15,2,13.6,1.184,1.547,2.36,3.224,3.657,4.839-.708.578-1.416,1.028-2.125,1.544-4.244-.9.708.193-1.411-1.161-.354-.323,1.765-1.289-.708-.258-.943.453-1.181,2.9,2.711,5.414,1.768,1.1,2.006.13,3.657,1.289,1.887,1.354.473,4.836.235,6.963a22.778,22.778,0,0,1,2.36,1.031c2.479,1.289,3.187,3.609,4.365,5.864,1.181-.45,2.479-.966,3.773-1.482a12.187,12.187,0,0,0-.824-3.609c-.47-1.547-.943-1.289-2.949-1.547,2.357-4.382-3.3-9.926-3.776-13.793v-5.286c-2.36-.773-3.419.13-3.419-2.708,0-2.32.116-4.705,2.36-4.768,4.72-.065,2.36,7.218,1.887,10.122a21.712,21.712,0,0,0,2.949,1.479c1.181,1.484,2.357,2.9,3.538,4.317,2.241,2.385,1.771,3.093,1.771,6.32,4.955,1.609,1.652.448,4.955,3.864s-2.714-2.575.827.584c2.949,2.833,6.839,7.734,4.6,12.181-1.884,3.994-.827,5.414,2.833,7.734,3.3,2.19.708,2.19,4.955,3.609,5.071,1.674,11.677,5.609,18.637,8.442,7.314,2.9,10.382-4.382,15.926,2,1.062,1.1,1.416,1.55,2.476,2.708a27,27,0,0,1,2.244,2.258c2.479,2,3.892,1.159,6.722,2.255,13.448,4.963,5.782,2.9,14.275,9.476v6.637c.943.261,2.006.581,3.068.966,1.533.323.943-.578,2.714.646,4.717,3.159-1.535,4.125,9.317,5.606-.235,1.289-.47,2.578-.708,3.8.119-.065.354-.453.473-.261a6.74,6.74,0,0,1,.943-.513c2.006-.518,2.241.836,6.136.255-.473-5.348-1.416-3.416,3.773-6.637,1.062,2.643-1.062,1.1.589,3.221a5.676,5.676,0,0,0,.589.711c.238.065.592.708.708.9a23.665,23.665,0,0,1,1.771,2.963c1.887,3.286,2.833,15.47-1.416,18.756a24.043,24.043,0,0,0-2.241,2.062c-.119.2-.473.708-.592.9a4,4,0,0,1-2.595,3.609c-1.53.643-2-.2-2.711,2.705-.708,1.807-1.416,3.609-2.125,5.351-1.059,2.836.354-1.87-.354.9-.235,2.127-.47,4.19-.705,6.252.943.776,1.887,1.612,2.949,2.385,0,.193-.235.193-.235.453a3.906,3.906,0,0,0-.592.9c0,.065-.235.323-.235.453-.708.836-1.416,1.609-2.006,2.448,0,.193-.119.32-.235.516a.837.837,0,0,1-.238.45c-.47,2.193.708,7.994,2.833,9.734,6.133,5.218,8.847,13.858,12.385,21.074.827,1.742,1.652,3.482,2.6,5.159.822,1.351,2.595,3.547,3.065,4.768,1.178,3.416-1.414,1.419,1.533,5.479,5.428,7.221,13.212,9.411,18.64,15.535a21.443,21.443,0,0,0,2.006,2.062c2.711,2.513,3.657,5.541,4.127,9.343.824,6.32.357,9.476.473,14.632.116,4.255,1.178,8.96,1.178,15.02,0,2.513.119,5.093-.119,7.606-.708,6.252.238,2.062.708,6.445.354,3.8-1.416,1.161.238,5.991a35.14,35.14,0,0,1,2.006,6.833,41.115,41.115,0,0,1-1.181,19.337c-.473,1.612-1.533-.643,1.062,5.671.827,2.062,2.125,4.513,2.241,5.609.473,2.833-.354,2.578,1.3,9.538.708,2.705.592,7.088.592,10.057,1.533-.261,3.068-.646,4.6-.9-.357-2.065-.589-4.19-.824-6.382,1.884,2.643,1.649,4.966,2.238,9.8-1.535-2.51,1.416-.9-3.773-2.9.705,3.093.705,1.677,0,4.64ZM178.077,291.57c0,2,1.181.2.473,0h0C178.077,291.51,178.077,289.833,178.077,291.57ZM528.791,204.3c.119.261.827.2.946.13.235-.065,1.3,1.932.354-.193C530.091,204.238,528.674,202.626,528.791,204.3ZM191.644,116.323c0,.966,1.652,1.547,1.181-.2-.473-1.674,1.887-.258-.354-.19C191.525,116.063,191.644,114.711,191.644,116.323Zm-40.7,152.045c0,.839,1.652,1.609,1.181-.065-.473-1.739,1.887-.065-.354-.258C150.828,268.046,150.944,266.757,150.944,268.369ZM128.3,286.932c0,.839,1.652,1.609,1.181,0-.476-1.742,1.884-.13-.354-.258C128.179,286.544,128.3,285.386,128.3,286.932Zm349.3-86.176c0,1.031,1.533,1.932,1.178,0-.47-1.872,1.89,0-.354-.193C477.478,200.434,477.6,199.08,477.6,200.757ZM167.58,316.643c0,.969,1.535,1.807,1.181,0-.473-1.674,1.884.065-.354-.127C167.464,316.32,167.58,315.1,167.58,316.643ZM474.528,105.17c0,1.031,1.652,2,1.178.065-.47-1.867,1.889,0-.354-.258C474.409,104.847,474.528,103.5,474.528,105.17ZM184.919,324.249c.708.838,2.714-1.161.827-.45C185.747,323.8,183.625,322.96,184.919,324.249ZM16.7,292.218c.119.705,1.652,1.354,1.062.125C17.407,291.765,16.344,290.476,16.7,292.218ZM564.446,62.563c.674,2.037.567.7.986.941Zm1.176,1.116a22.255,22.255,0,0,1,2.1,4.819,40.829,40.829,0,0,0,1.89,3.994c-1.771-.773-3.541-1.419-5.309-2.19-2.476,1.547-1.062,2.125-4.482,2.19,2.476-3.867,2.006-5.479-2.244-7.6a35.254,35.254,0,0,0-4.72-1.807c-10.5-4.7-4.125-2-14.269-5.479-.592-.258-1.184-.45-1.657-.708a2.743,2.743,0,0,0-.586-.323c-2.949-1.8-1.065-1.289-6.725-1.354a.822.822,0,0,1,.119-.513c0-1.1,2.949-1.742-7.314-4.771-4.365-.13-8.609-.258-12.858-.45-6.136.13-3.184,1.609-6.49,2.062-1.06.19-.705-.13-2.949-.516-4.127-.516-7.312,2.125-10.5,4.382V53.739c-5.425,1.479-3.657,2.9-9.79,4.705.235,2.963-1.533,2.833,5.309.966-.47,5.414-5.544,5.283-7.669,9.538-1.062,2.06,1.535.966-1.771,2.448-2.476,1.031-2.949,2.643-4.952,6.059-3.657-1.159-1.533-2.643-5.309.643-5.666,5.156-12.034,2.9-8.728,17.921a21.808,21.808,0,0,0,.94,2.771c2.949,4.963,7.669,4.059,11.21,1.612q2.477-1.258,4.952-2.705c2.36,1.932,1.3,2.9,2.949,6.057.943,1.867,2.006,3.867,3.068,5.8-1.771.836-3.538,1.612-5.309,2.382.824-3.674-.235-4.96-.708-9.215-.943.388-1.771.9-2.595,1.224a1.967,1.967,0,0,1-.47.323,12.42,12.42,0,0,1-1.652.578c-2.595,1.031-3.541.261-3.657,4.382a13.3,13.3,0,0,0,.235,3.1c.708,3.544.827,2,1.3,7.864-4.246,2.193-10.38-.516-12.739,3.994-2.244,4.382-2.36,7.026-9.909,8.83-.47-.836-.943-1.739-1.416-2.575,1.3-2,3.657-2.45,2.244-4.966-2.6-4.768-2.244,1.8-4.957-4.833-2.83-6.9-1.768-2.836-3.657-6.122a1.037,1.037,0,0,1-.235-.518c-.119-.193-.235-.382-.354-.578-1.3-2.708-.473-2.255-3.654-3.482.586-2.448,2.238-4.64,3.773-7.538-2.008-.261-4.014-.584-6.017-1.034,1.416-2.193,2.952-4.382,4.482-6.575-3.535,0-1.771-.45-4.127,1.289-2.476,1.807.473,1.031-3.068,1.55-2.006.32-1.414-2.062-4.836,5.218-.827-1.547-.238-2-.592-3.609-.116-.9.946-.255-.47-.966-1.887-.966-3.419,4.187-4.955,7.864,2.125-.708,2.006-1.484,2.952-4.255,0,.258.235,2.127.235,2.127v.643c-.119,2.9-1.3,1.612,1.295,4.9-.589,1.094-1.062,2.19-1.53,3.286-2.125-.516-3.422-.966-5.428-.065-2.125,1.031-2.6,1.87-2.125,4.448-1.771,0-3.541.065-5.19.065v3.221c0,1.1-.238-1.867-.119.776,0,.065.119.32.119.385v.323c.47.711.946,1.419,1.414,2.062-1.3.839-2.592,1.677-3.773,2.513,1.414,6.7,2.83,4.9,14.394,1.419,2.238-10.637,1.295-8.51,5.306-11.6v2.581h2.241c.473-1.1.946-2.193,1.535-3.351q.71,3.094,1.416,5.992c-1.771-.065-3.541-.127-5.193-.127a17.652,17.652,0,0,0,0,2.513c.589,2.643,3.187,1.289.119,2.643-.827.193-1.652.453-2.479.578,1.181,1.484,2.479,2.969,3.776,4.382-1.416.323-.708.2-1.416.776-1.533,1.674-3.068,3.286-4.6,4.9a26.625,26.625,0,0,0,6.014-.708c.354-.065.708-.2,1.178-.323a1.931,1.931,0,0,1,.592-.127c2.83-1.034,1.062-.776,4.246-1.1,3.3-.127,3.892-.258,6.96-.516,5.428-.258,2.241-.453,5.9-1.484-3.657,8.64-.824,1.484-6.017,7.286-6.606-.323.824-1.8-9.082-1.031.47,1.674,1.179,2,3.068,4.317-6.136-.2-.592-1.484-10.62-.323v4.19c2.006.581,5.074.969,6.609,2.193,1.533,1.159,1.3,1.8,2.714,3.8a6.525,6.525,0,0,0,.941,1.289c2.36,3.609.235,8.572-1.178,14.048-2.949-.382-18.64-2.768-20.646-2.19-2.83.9-.589.646-5.779,2.966.354,4.705.946.773,1.062,4.836.473,9.666-3.184,12.309-3.3,15.4-.119,3.737,2.241-1.354,1.533,9.218,2.711-.065,5.425-.133,8.258-.133,1.062,4.646,3.422,3.482-.119,11.6-2.241,4.836-4.244,3.674-7.785,6.643a12.58,12.58,0,0,0-3.538,5.218c-1.889,4.448-2.125,3.028-1.771,7.606.589,8.184-9.436,11.343-11.442,12.439-3.3,1.739-1.062,2.833-4.955,7.091-.351.258-.592.578-.827.773-2.711,3.091-1.768,4.963-3.419,7.991-1.3,2.516-2.714,1.932-4.72,7.221-3.068,8.181-6.6,8.892-.589,14.436-1.062,5.156-1.889,1.482-.589,6.51,1.178,4.448-.473,10.246-1.89,15.079-.589,1.935-1.884,3.351-3.535,6.059a33.081,33.081,0,0,0,2.946,1.742,29.437,29.437,0,0,1-.473,4.382c-.708,7.669,1.89,1.161,2.006,10.7,3.776-.258,2.244-1.739,8.615,5.541,1.414,1.677.589.646,1.176,1.873,1.771,3.606,1.89,7.858,2.833,9.473a.979.979,0,0,1,.235.385c1.062,1.227,2.479,1.55,3.776,2.385a11.328,11.328,0,0,1,2.125,1.739,7.64,7.64,0,0,0,1.178,1.289c1.181,1.161.235.261,1.3,1.1,5.071,4,8.963,10.827,13.915,8.057,14.513-8.314,12.507,1.8,24.422-3.994,8.728-4.255,9.674-4.64,19.581-4.708,2.714,4.516,1.535,3.354,3.306,7.348a23.109,23.109,0,0,0,1.3,2.773,23.477,23.477,0,0,0,7.076-.516,15.839,15.839,0,0,1,2.83-.643c2.125.19,1.416-.261,2.125,2-1.887,1.479-2.006.836-2.241,4.187h2.125c.235-1.094.589-2.19.943-3.351,4.833,1.354.589,16.5,0,20.111-.827,0-1.652.065-2.36.065.824,2.385,1.652,4.833,2.476,7.283a.99.99,0,0,1,.238.578c3.181,4.448,6.368,8.96,9.671,13.343,1.062,2.127.827,3.932,3.541,11.023,4.244,10.765-1.3,5.414,2.711,15.34,2.122,5.283,1.414,6.833-1.649,11.02-2.714,3.87-2.244,5.544-3.541,10.445a49.292,49.292,0,0,0-1.771,11.473c-.235,3.221,5.663,15.272,7.433,19.207,2.711,5.734,2.711,2.833,2.83,11.085,0,4.9.354,2.836,1.062,6.187.589,2.385.354,4.187.708,6.833a26.507,26.507,0,0,0,2.714,7.476,4.394,4.394,0,0,1,.116.45c1.062,2.062-.708-.773.592,1.031,3.657,5.028,2.476,2.643,4.72,9.283.824,2.513,4.008,6.96,3.535,9.731-.708,5.159-2.238-1.609-1.062,3.867.354,2.193.708,4.32,1.181,6.382,6.844,3.028,3.422,2.385,8.85.323,2.595-.711,5.306-1.484,8.02-2.258,10.144-.771,14.037-.388,21-8.507,1.533-1.677,3.184-3.416,4.839-5.091a10.88,10.88,0,0,0,1.533-1.739c3.187-3.8,3.541-7.737,6.96-11.026a2.564,2.564,0,0,0,.351-.448c3.776-3.935,3.068-10.38,3.541-15.343,2.833-2.255,3.3-2.062,6.487-3.994,3.068-1.8,3.657-2.385,4.13-6.575.705-6.513-.708-10.377-2.36-16.244,2.83-4.833,4.011-3.093,8.731-9.8,4.363-6.317,8.847-2.643,14.037-13.085,1.649-3.286,1.059-3.348.589-7.541V424.025a4.759,4.759,0,0,1-1.768-1.161c-1.535-1.612-2.36-5.8-2.6-7.671,0-1.161.473-3.929.473-5.221-1.887-8.119-4.839-.323,1.533-15.856,2.36-5.8,6.252-9.411,9.32-14.5a22.227,22.227,0,0,1,3.422-4.448c8.139-8.7,8.847-7.926,11.677-10.827a58.63,58.63,0,0,0,9.436-14.371c1.771-3.674,2.952-7.348,4.484-11.218,1.652-4.059,5.547-7.541,5.547-11.793-2.6-1.1-1.535-1.354-1.535-6.382-3.3.127-6.844,2.45-9.906,2.836q-1.772.391-3.541.773c-2.595.646-3.3,1.55-5.663,1.742-2.714.32-5.428.773-8.023,1.161-.705-2.193-2.476-3.935-3.773-5.739.47-1.028.943-2.19,1.533-3.221,3.3,0,4.484-.13,5.9-.9,3.3-1.416,6.6-2.836,10.026-4.32,1.181-.643.354-.258,1.181-.513a5.045,5.045,0,0,0,2.708-1.031c1.062-.776.592-1.1,2.479-2.255,2.479-1.484,6.844-1.55,9.323-3.674,3.654-3.224-2.479-2.581,4.833-5.351,8.966-3.416,7.906-1.547,16.28-9.926.235-2.125.473-4.255.708-6.445,3.3-1.161,4.72-6.64,6.136-9.8-1.89-1.419-2.949-3.289-4.6-4.836-2.714-2.45-7.317-1.289-8.734-5.544-.351-2.513-.708-5.091-1.057-7.6-.827-.065-1.535-.065-2.244-.13-.354,4.9-5.074,9.283-9.674,9.153a9.726,9.726,0,0,0-4.6.839c-.116-.261-.235-.708-.354-.581-.235-.646-.47-1.289-.708-2-.943-4.96.473-2.51-2.714-7.861-.824,1.289-1.533,2.578-2.241,3.867a6.348,6.348,0,0,1-.235-2.773c-.354-4.382-5.779-7.411-8.02-12.051-1.416-3.224.116-2.963,1.414-5.414.708-2.385-.116-.643.946-.839a8.947,8.947,0,0,0,1.533.388c2.476,1.031,3.184,2.836,4.363,5.414,1.652,3.479,1.416,3.671,4.839,5.479,11.323,6.187,3.184,6.51,17.7,3.416.705,2.128,1.53,4.317,2.357,6.314,4.127,1.292,12.15,3.612,16.632,4.127a41.964,41.964,0,0,0,5.266.181A335.893,335.893,0,0,0,565.621,63.679ZM523.6,202.3c-2.244.581-.943-.839-1.535,1.612,2-.516.827.323,1.535-1.612.467-.839.943-1.612,1.416-2.448a33.856,33.856,0,0,0,2.357,3.479c.47-.516.943-1.031,1.414-1.612-2.476-1.159-.235,1.1-2.36-2.385-1.411-2.255-.467-1.739-2.827-3.351-.827-.836-2.125-.643,0-4.382-5.074.966-1.181.708-3.541-1.484a2.845,2.845,0,0,1-.824-.643c-1.771-1.739-.592,2.062-1.652-2.385a3.472,3.472,0,0,0,4.127.2c1.533-.9,1.416-2.258,1.89-3.994,2.827,2.255,1.533,2.9,0,4.96,6.014-.323,3.654-1.1,4.128,2,0,.193.116.966.116,1.161a4.517,4.517,0,0,0,.119,1.289c-.119.966.119.323-1.416,2.32,1.181.646,2.479,1.224,3.776,1.8a6.112,6.112,0,0,0-2.241,3.159c1.414-.127,2.949-.323,4.482-.581,0,.193-.235.258-.235.581-.473,1.161-.827,2.382-1.181,3.547.946,1.479,1.89,2.9,2.952,4.252.943-1.289,2.006-2.578,3.068-4,.943.646.589.453,1.765,1.354,1.416,1.031,3.422,4.19,6.49-1.1,8.377,5.348,7.9,4.513,13.567,1.227,1.181-.646,3.187-.518,4.6-.708,0,14.5.822,9.8-4.6,25.263a31.061,31.061,0,0,1-9.317-2.127c-2.714,1.161-5.428,2.32-8.026,3.416-1.414.13-8.136-3.416-10.969-4-2.36-.385-2.36-.062-4.365-1.159-1.295-.773-4.717-1.739-6.487-3.093-3.187-2.323-7.55-3.932-9.436-1.674-1.181,3.479-2.36,6.9-3.422,10.312-5.193,1.161-3.422-.9-8.023-3.1-1.768-.708-3.419-.966-4.836-1.479-3.9-1.615-.943-.584-3.3-3.935-2.952-3.929-10.028-2.9-14.04-5.414-1.533-.9-3.068-1.674-4.482-2.513,1.414-1.1,2.949-2.258,4.482-3.414l-1.062-4.062c-.943-2.708-2.592-1.87-1.178-4.705.47-.323.943-.773,1.533-1.227v-2.578c-6.133,1.612-.589-2.255-6.368-1.224-2.125.385-1.652.969-3.892,1.482a8.737,8.737,0,0,1-3.9,0c-7.785.711-15.453,1.419-23.119,2.2-2.244.708-4.368,2.19-6.844,3.8-5.071,3.416-6.014,1.677-14.745,1.1V202.24c4.363-.453.827-1.419,6.017-1.677,6.133-.2,4.482.127,8.728-3.609,2.241-1.8,3.776-4.771,5.663-6.96-.827-1.161-1.533-2.258-2.241-3.416a11.724,11.724,0,0,0,2.714-2.839c2.83-3.544,6.839-4.833,10.853-6.9-.119-6.705-2.009-9.861,8.966-4.833q4.95-3.289,9.909-6.575c4.833,3.028,4.244,2.382,3.657,8.507,3.535-1.419,2.83-.9,6.487,2.963,3.422,3.547,7.666,5.479,11.088,8.705,1.887,1.674,2.479,2.9,3.657,5.283-3.538,3.994-8.493,2.836-12.858,3.224v3.351c2.6.258,7.669,3.739,10.5,5.091v-6.705c4.011,0,4.13-1.544,6.844-3.929-.589-2.32-1.062-4.575-1.535-6.833,1.3-.578,4.246,1.289,6.017,2-.473-6.9-4.836-3.994-7.55-7.734-.473-1.159-.943-2.32-1.416-3.544-5.428,1.354-5.663-2.062-12.858-10.184.708-1.935,1.416-3.8,2.244-5.8,2.949,2.385.47.966,1.884,2.966,1.771,2.193,2.949,2.193,3.892,3.739a.535.535,0,0,0,.238.385c.708,1.031,7.788,4.963,9.909,6.575,1.059.9,1.533,1.028,2.711,2.06,1.062.841,2.125,1.615,3.187,2.45,0,3.87-.827,5.737.943,9.153.592,1.161,2.479,2.708,3.657,3.674-.116,3.351-1.533,5.091.946,6.768,1.179.966,1.649.643,3.181,3.028a14.991,14.991,0,0,0,3.9,3.87c.824.513-.592,1.479,1.533.323,2.006-1.224.354-2.385.943-4.516.354-1.739,0,.841.827-2.32.235,0,.473.068.708.068.943,1.416,2.006,2.836,3.068,4.252ZM174.3,319.736c2.36-1.8,2.36-.578,0-2.32Zm359.093-109.5a6.519,6.519,0,0,0-.119-1.612c-.354-1.419-.235-.966-.708-1.739-.708,3.606-1.533,1.416.827,3.351ZM34.749,281.45c.708-.062,1.53-.127,2.36-.127-1.181-1.482-.235-.839-2.36-1.227ZM180.321,136.818c.47-.065.943-.13,1.53-.2-.47-2.19.122-1.159-1.53-2.125v2.32Zm12.858-86.176c2.238-.966,1.059,0,2.238-2-.824.127-1.533.323-2.238.45v1.547ZM222.55,69.849c2.241-.9,1.178-.127,2.36-1.932a22.64,22.64,0,0,0-2.36.323v1.609ZM132.9,286.156a13.432,13.432,0,0,1,2.241,0v-1.609C133.839,284.867,133.131,284.674,132.9,286.156Zm24.889-8.057v2.32c1.181-1.224,2.479-2.575,3.776-3.864-4.244,1.609,3.3-1.484-1.533.773C158.729,277.974,161.8,277.906,157.785,278.1ZM402.924,19.641v1.674c-.827.068-1.654.068-2.36.068,1.178-1.87.116-1.034,2.36-1.742Zm-232.4,49.566c.705-.13,1.414-.258,2.241-.453V67.145c-.827.193-1.535.32-2.241.453ZM160.735,274.3c.708-.065,1.416-.065,2.244-.065V272.62c-.827.065-1.535.065-2.244.065Zm-4.482-6.833a10.532,10.532,0,0,1,1.533-.13v-2.255c-.586,0-1.062.065-1.533.065v2.32ZM.211,255.937l.68-.074V254l-.377.014ZM195.416,107.813c2.595-1.739,1.416-.258,3.068-2.705C196.241,105.558,195.538,105.43,195.416,107.813Zm38.459-7.153c.705-.065,1.533-.2,2.357-.258V98.017c-3.065,2.065-1.652-.127-2.357,2.643ZM173.592,319.8c-.705-2.771-.116-2.062-3.065-2.32C171.941,319.546,171,319.093,173.592,319.8ZM485.853,114.645c1.652,2.643-.473,1.351,3.065,1.739-.824-2.448-.824-2.64-3.065-1.739V112.2c1.414-.388,2.83-.711,4.246-1.031,2.83-.9,2.241-.711,3.068-1.677,2.595-2.836,1.416-4.19.235-9.669,1.771-.127,3.538-.323,5.309-.516,0-2.45.235-2.32,1.414-4.9-3.184-2.643.122-.839-6.014-4.64.473-6.059.827-5.606,2.006-6.9,2.238-2.643,7.077-3.156,8.612-5.218a3.466,3.466,0,0,0,1.059-2.516c.473-2.385-.116-.966,1.89-4.317,2.714.578,5.541,1.031,8.374,1.482-.824.839-1.533,1.677-2.238,2.448-3.776,4.382-4.957,4.255-9.912,4.966.589,1.8.827.708,1.062,3.609a33.714,33.714,0,0,0,.473,3.414c.824,2.966.47,3.739.824,8.122a16.635,16.635,0,0,1,4.484,1.161c2.122,1.547,6.368-.646,8.374-.839,2.949.513,6.017,1.031,9.082,1.547-4.955,2.771-14.983-2.9-14.629,2.9-1.176-.388-2.36-.708-3.535-1.161-1.416,1.419,0,.643-2.36,2.385a31.737,31.737,0,0,0,.943,3.416c0,.2.235.516.235.643.119.258.238.453.354.708-2.122-.385-.47-.708-1.768.646-.946.9-.827,1.031-1.062,2.127a28.255,28.255,0,0,0-.238,3.093c-.354,3.739-.47,5.028-6.017,7.091,0-.065,1.3-4.059-7.2-.9-2.36.9-4.72,1.932-7.076,2.9a30.068,30.068,0,0,1-1.533-3.479c-2.833.9-5.547,1.674-8.261,2.448,1.416-4.059.354,1.742,3.776-5.8C482.2,114.967,482.55,114.582,485.853,114.645ZM152.48,262.888c.589,2.771.354,2.45,2.241,3.8a17.088,17.088,0,0,1-.708-3.867,13.028,13.028,0,0,1-1.533.065c-.235-3.093-.354-3.028-3.068-3.674,1.178,4.513,1.652.13.824,4.578,2.008-.646.592.062,2.244-.9ZM228.686,155.9v2.448c1.887-.839,1.3-.065,2.949-3.479C230.1,155.766,230.808,155.443,228.686,155.9Zm4.482,470.317c1.181.2,2.476.451,3.773.708v-1.609c-1.3-.258-2.592-.518-3.773-.711ZM162.978,275v1.55c1.178-.065,2.476-.065,3.776-.13C166.046,273.781,165.454,273.911,162.978,275Zm-7.552-2.963c-.232-1.482-.467-3.031-.705-4.575a11.158,11.158,0,0,0-1.533.065c.116,3.609,0,3.028,2.238,4.51ZM211.344,29.758c3.538-.643,2.949.323,3.776-2.963C212.641,27.18,211.344,27.053,211.344,29.758ZM156.253,275.135c2.595-.836,2.36-.836,2.949-3.932-2.479.258-1.416-.773-2.595.9A27.987,27.987,0,0,1,156.253,275.135ZM210.516,91.119c1.181-.062,2.479-.19,3.776-.385V88.348C211.814,88.671,210.635,88.478,210.516,91.119Zm-87.53,184.66v2.966c2.833-.258,2.833-.258,3.068-3.031-1.062,0-2.125.13-3.068.065,1.533-.773,3.068-1.544,4.6-2.382,1.181,4.255-.943.385,8.139,3.8,8.615,3.159,0,2.578,8.377,4.19-.827,1.354-1.535,2.578-2.244,3.932a134.41,134.41,0,0,0,15.1-1.8c-2.241-3.351-1.3-1.482-5.071-3.932-9.79-5.867-6.374-4.705-8.731-6.38-2.83-1.872-1.3.385-5.19-1.354-10.618-4.771-13.567-.258-21.708,5.737,4.365-.388,2.833-1.354,6.725-1.807ZM438.312,93.184c.354-4.19.589-.969,1.533-4.963-1.652.385-2.714.323-3.419,2.19C435.48,92.861,436.661,92.665,438.312,93.184Zm-15.807-7.156c.235-1.677.47-3.351.708-5.091-2.479,0-3.657-.646-3.306,1.932.238.643.473,1.292.708,2,.708,1.484-1.533.708,1.89,1.161ZM201.435,96.985c.708.646,1.535,1.354,2.36,2.125.827-3.476.235-1.8,3.068-3.671a18.851,18.851,0,0,1-1.652-2.125C203.678,94.665,202.616,95.116,201.435,96.985ZM138.914,290.6c2.946,1.031,5.9,1.935,8.963,2.9C145.047,288.09,140.919,290.345,138.914,290.6ZM443.621,187.609c2,.643,1.416.836,2.949.9,1.3,0,2.36-.323,2.36-1.547C448.93,181.549,444.448,186.189,443.621,187.609Zm55.091-79.15c.589-1.87.708-.516,2.241-5.671-3.3.062-4.955.9-4.363,4.059v.516C497.179,108.974,495.29,107.878,498.712,108.458ZM141.859,254.252c.83,2.836.708,2.578,6.017.45q-.353,1.938-.705,3.87c.705-.065,1.414-.065,2.241-.13-.235-1.737-.473-3.479-.708-5.286-2.949.323-2.949.9-6.844,1.1ZM191.644,98.209c2.125-1.419,2.479-.836,4.839-2.127,2.238-.966,2.946-1.354,3.535-3.8C195.066,92.926,192.706,94.019,191.644,98.209Zm-4.484,26.618c2.125-.771,4.011-1.609,6.02-2.382-.238-3.286-.592-3.609-3.776-3.414-1.062,4.252-1.89,1.093-2.244,5.8Zm340.217,78.507c-.354-.065-.708-.127-.946-.193.238-.2.592-.453.946-.708Zm-5.071-6.059c1.765.839.589-.966,2.006,1.742-1.3-.388-.241.385-1.181-.453-1.062-1.224-.235,0-.708-1.289h-.116Zm-380.447,66v1.547c1.654.516,1.416-1.227,2.244,3.674h2.36c-.119-1.807-.119-3.674-.119-5.544a18.431,18.431,0,0,1,1.533-1.419c-1.533-.193-3.065-.388-4.482-.643-.351,3.8.824,1.674-1.535,2.385Zm38.462,29.776a31.784,31.784,0,0,0,8.374-1.1c-.473-1.867-.119-2.643-6.014-2.833-2.479,0-2.36,1.416-2.36,3.929Zm331.133-187.3c-1.062-2.963.351-2.705,3.535-2.705,1.062,2.062.827,2.19,1.062,4.96-3.065-.45-1.3-.255-2.833-1.159-.589-.385-1.179-.773-1.765-1.1Zm1.533-4.578c-1.3-.9-.946-.32.586-.708A2.2,2.2,0,0,0,512.986,101.172Zm37.751,111.249c1.295,2,2.711,2.9,5.187,1.739,1.89-.966,1.416-.708,2.6-2.963.354-.836.824-1.677,1.3-2.643-6.963,3.416-5.312-1.612-9.082,3.867Zm-30.909-2c5.071,2.516,2.949,1.938,10.5,1.292v-2.448c-2.36.448-2.949.062-6.133-.841-1.533-.385-2.949-.836-4.365-1.289v3.286ZM219.6,159.7c0,1.289.238.841-1.3.907C218.657,160.342,219.13,160.019,219.6,159.7Zm2.244,4.9c0-3.286,1.295-.385,1.53-.13A6.547,6.547,0,0,1,221.844,164.6Zm4.482-1.351,1.533-.841C227.269,164.725,228.448,164.082,226.326,163.246ZM192.47,35.818c1.533,1.935.943.516,4.479,3.093,8.025-5.156-1.884,1.227,9.793-4.51-9.085-2.771-9.32-3.87-12.266-.708a.991.991,0,0,0-.473.385c-1.652,1.867.354.581-1.533,1.739ZM165.337,43.1v1.547c3.3-.708,4.13,2.127,10.025-1.031,4.365-2.32,4.72-3.156,8.02-6.637-4.125.839-7.312,1.224-10.38,3.286-.47.32-.943.773-1.416,1.031-.235.065-.354.2-.589.2-3.89,1.8,3.187-.646-1.06.385-2.595.708,1.178-.45-2.122.323-.119.062-2.009.708-2.479.9ZM466.268,172.977c.473,2.64.943,5.091,1.535,7.606-1.652.705,0,.385-1.3.062-.592-.258-1.181-.578-1.771-.9.116,3.159.235,6.314.47,9.408.354,2.581.473,2.258,5.547.711,0-8.637,1.771-2.255-.708-10.054a2.886,2.886,0,0,1-.235-.966c0-2.45.116-4.966.235-7.479-2.714.773-1.062.773-3.776,1.612ZM237.529,65.66c-.589.518-1.057,1.031-1.533,1.484C236.472,66.691,236.939,66.178,237.529,65.66ZM226.56,62.886c.708.907.943.776-.235.841A2.641,2.641,0,0,1,226.56,62.886Zm6.725,3.161c-.943,1.416-.354,1.1-.827-.516A1.9,1.9,0,0,0,233.285,66.048Zm-1.062-1.419a2.267,2.267,0,0,1,.235-.836C234.7,64.24,234.228,63.858,232.223,64.628Zm-1.062-1.547a6.024,6.024,0,0,1-.235-1.482C232.931,62.827,233.166,61.985,231.16,63.082Zm-.235-1.482c-1.062-.646-1.062-.127.119-.9A2.723,2.723,0,0,0,230.925,61.6Zm-70.9,226.49c-.238.065-.473.065-.473.323a.471.471,0,0,1-.589.193,3.128,3.128,0,0,1-.946.45c-3.3.9-.589-1.221-4.833,2.9a17.052,17.052,0,0,0,5.66.453c2.241.255,2.479,1.8,7.2,1.8,2.241-6.255,12.739.323,10.969-5.221-.47-1.677-6.133-4.575-7.076-4.963a5.728,5.728,0,0,0-2.949-.388c-4.13.323-1.3.9-6.96-.966-2.36,3.674-.473,1.612,0,5.414ZM375.67,69.01c.943-1.031,4.249,1.292.943.323,0-.062-2.241,1.161-.943-.323Zm-2.949,3.416A32.557,32.557,0,0,0,375.67,74.1v2.513c4.249.453,8.493,1.034,12.858,1.419,1.887.127.708-.453,3.776-1.739,2-.776,2.592-1.031,4.6-1.677,4.6-1.289,5.547-1.674,7.433-5.286-.824-1.677-1.533-3.351-2.241-4.963-3.422,0-2.949-1.159-5.663-.32q-1.415.773-2.833,1.544c-3.535.773-4.952-2.125-11.088,2.45-.119-2.127.235-1.482-1.414-3.416-1.773-2.19-6.725,1.484-7.433,2.9-1.652,3.1-.235.068.235,2.258.592,2.252,1.771-1.87-.47,1.674a6.018,6.018,0,0,0-.708.966ZM494.109,16.288c.827-.836,2.949,1.612.827.453C494.936,16.741,492.928,17.642,494.109,16.288Zm-8.258-1.159c-4.011-.388-8.023-.839-12.034-1.292,0,.584.119,2.323.119,2.516a.809.809,0,0,1-.119.513c-.354.711-.589,1.354-.824,1.938,2.711.708,5.544,1.416,8.377,2.062.943,4.575,3.068,5.153,9.79,6.252,1.178-2.255,2.476-4.448,3.776-6.64,5.187,5.351,6.13,6.833,14.272,3.028-1.652-1.1-3.068-1.224-4.72-1.87-1.416-.643.238.2-1.062-.578a34.067,34.067,0,0,1-3.3-2.578c3.224.314,5.388.663,7.008.765q-4.632-2.788-9.334-5.419c-.765-.136-2.623-.139-8.173.334-6.368.773-1.178,1.1-3.773.969ZM159.2,48.195c0,.13.119.13.235.193C159.434,48.387,159.2,48.325,159.2,48.195Zm1.533-1.1c0,.13.119.193.238.255C160.97,47.353,160.732,47.229,160.732,47.1Zm-24.062,9.408a41.239,41.239,0,0,1,16.516,2.065c5.425-.969,9.555-3.544,14.156-4.705,5.071-1.159,10.263-1.87,15.337-4.19-1.771-4.059.586,1.482-2.006-1.419-.119-.643-.238-1.351-.354-2-1.535.516-3.068,1.093-4.6,1.612.235-1.031.473-2.062.827-3.224-12.15,3.87-7.076,4.125-10.5,5.994-4.484,2.513,2.119-7.025-7.907-4.382a45.611,45.611,0,0,0-4.482,1.161c-4.6,2-9.2,3.932-13.683,5.8-3.187,1.419-2.6.13-3.3,3.286Zm284.3,55.561c.943-.388.473-1.87,1.535,1.739-.592.193.943,2.32-1.3-.323C418.729,110.39,421.675,113.551,420.967,112.067ZM617.854,435.753c-5.9.584-1.53,1.031-5.187,6.833-3.068,4.64-10.618,5.932-12.153,7.8-.824,2.127-1.533,4.317-2.241,6.51,0,5.221,2.36,8.83.827,12.892-1.416,3.609-5.312,5.8-4.13,10.89,1.416,5.482.47.649,1.062,6.9.235,2.516.708,4.062,2.476,5.348,3.66,2.773,5.309.711,11.091-1.159.116-1.739,8.728-27.714,9.906-32.034.708-2.771.119-2.9,1.535-5.606,1.062-2.32,1.178.385.589-5.093.235-.065.473-.13.708-.193,0-.062.235-.127.354-.258,0,0,.235-.062.235-.127,3.422-2.963-.47-12.569-2.006-18.436-.589.065-1.062.065-1.533.13-.946,2.708-1.535,1.354-1.535,5.606Zm-405.1,180.278c.824-.581,2.949,1.87.824.643C213.582,616.674,211.576,617.127,212.757,616.031Zm-2.244-2.708c0,.13.119.2.241.261C210.754,613.583,210.514,613.453,210.514,613.323Zm-2.946-.578a.362.362,0,0,0,.119.32S207.449,612.875,207.568,612.745Zm6.722-1.159c.827-.711,2.833,1.8.827.578C215.117,612.164,212.992,612.68,214.29,611.586Zm-19.581-7.414c0-.323,3.419-.838.943.258a.541.541,0,0,0-.238-.065C195.063,604.235,194.474,605.912,194.709,604.172Zm-9.085-30.549c0,.127.119.127.235.19C185.859,573.813,185.624,573.685,185.624,573.623ZM224.907,531.6a.42.42,0,0,0,.235.323C225.024,531.855,224.788,531.663,224.907,531.6Zm21.116-10.314c0-2.125,1.178-.062.354,0h0C245.907,521.283,246.024,523.025,246.024,521.283ZM160.732,326.569h1.535c.589,2.45,1.062,2.516,0,4.705C158.845,328.631,160.851,329.47,160.732,326.569Zm-59.569-13.017a.21.21,0,0,0,.235.193S101.043,313.614,101.162,313.552ZM108,244.2v0Zm0,0c.238-.45.473-.969.827-1.547C108.474,243.229,108.239,243.747,108,244.2Zm54.974-28.618c0,.13.116.13.235.2C163.211,215.776,162.975,215.645,162.975,215.58Zm2.36-11.731a.183.183,0,0,0,.116.193S165.216,203.914,165.335,203.849Zm-18.167-15.34c0,.13.116.065.235.13C147.4,188.64,147.049,188.64,147.168,188.509Zm1.533,1.354c3.657-3.609,4.484-3.286,9.79-4.705V186.7C152.712,187.351,154.364,189.348,148.7,189.863Zm11.326-5.671c.824-.839,2.83.966.824.385C160.851,184.577,158.726,185.611,160.026,184.192Zm11.323-4.125c-2.592,0-5.071,0-7.55-.068,4.957-1.674,3.422-.513,10.5-3.414-.47,1.87-.708,3.224-2.949,3.482Zm37.632-8.445a20.419,20.419,0,0,1,.824-2.45,19.763,19.763,0,0,1,4.484-1.093c-1.887,1.867-2.479,2.643-5.309,3.544Zm-58.04-.258c3.068-.708,0-.065,1.652-.708,1.181-.581.119-.2.946-.388a.733.733,0,0,1,.47-.193c.119,0,.354-.13.473-.13,9.671-1.544,8.374,2.643,8.493,5.479-1.3-1.1-2.6-2.255-3.776-3.414-2.479,5.544-.827,3.737-6.014,10.569v-.45a8.78,8.78,0,0,1-.238-1.807.744.744,0,0,1-.116-.448c-.119-.969-.238-2-.354-3.031a4.391,4.391,0,0,1,.116-.45c.473-1.031.946-2,1.416-3.093C151.414,172.2,152.593,173.362,150.941,171.365Zm-18.875,19.207a3.144,3.144,0,0,1,.473-1.867c2.241-7.221,4.13-7.028,5.309-9.476,3.422-6.768-2.006-2.323,10.025-8.38-1.059,4.19-4.125,2.643-8.255,9.15-2.36,3.674-.827,9.411-7.552,10.572Zm-1.533-22.431a10.984,10.984,0,0,1-1.535.584A10.984,10.984,0,0,0,130.533,168.141Zm0,0c3.538-3.351,8.5-3.8,13.1-7.28,2.711-2.065,2-2.13,8.02,1.932-2.83,2.193-5.544,4.255-8.258,6.252-2.476-1.547-1.887-3.289-6.017-1.612-4.955,2-2.595,1.87-6.841.708Zm77.742-15.533a.431.431,0,0,0,.235.323C208.511,152.863,208.157,152.739,208.276,152.609ZM27.193,176.2c.943.643.827.581,1.535,1.677C26.25,177.489,27.783,178.906,27.193,176.2Zm183.32-24.558c1.062-.9-1.533-.646,2.244-.969C211.93,151.512,213.7,151.127,210.514,151.642Zm4.6-1.935c-.592.193-1.181.388-1.652.581C213.936,150.1,214.525,149.9,215.117,149.708Zm26.306-63.615c0,.127.119.193.235.258C241.658,86.351,241.423,86.158,241.423,86.093ZM197.655,79.9c0-1.416,2.952-1.031,1.062.065a.691.691,0,0,0-.354.065c-.708-.13-.708,1.612-.708-.13ZM173.59,78.679c0,.127.119.193.238.258C173.828,78.937,173.474,78.807,173.59,78.679Zm25.6-6.057c1.178,1.932.708,1.547-2.244,2.643V72.881c.708-.13,1.416-.13,2.244-.258Zm.824-.9c-.354.385-.589.643-.824.9C199.426,72.362,199.661,72.1,200.015,71.719Zm-48.365,6.252c0,.127.119.193.238.193C151.887,78.164,151.649,78.036,151.649,77.971Zm42.232-8.507c.827-.966,2.949.773.946.193C194.709,69.722,192.7,71.008,193.882,69.464ZM138.91,84.1a6.474,6.474,0,0,1-.827-1.354c-5.309,1.224-10.615,2.385-15.807,3.479,2.006-1.547,4.011-3.091,6.017-4.768v2.966c4.008-.711,4.836-1.484,7.669-2.065,2.83-.708,7.312-.32,2.949,1.742Zm25.6-6.833q3.008-.871,6.017-1.932c-1.059,1.031-4.011,3.541-5.309,3.8-2.714.839,0-.323-3.538.388-5.428,1.419-2.006,1.547-8.493.45,3.184-2.64,1.771-2,8.374-2.193.708-1.737,1.416-3.351,2.241-5.025,2.6,2.385,1.3.708.708,4.513Zm-15.1-.388a.211.211,0,0,0,.235.2S149.409,76.94,149.409,76.875ZM302.527,55.8c.241-.45.592-1.093.946-1.677C303.12,54.7,302.768,55.348,302.527,55.8ZM133.6,75.2c1.768-.323,1.3-.258,3.068.19C134.78,75.844,134.78,75.778,133.6,75.2ZM376.5,44.586c2.827,1.609,2.006,1.224,3.773,4.187C376.966,48.518,376.612,48.58,376.5,44.586Zm-72.434,6.122c0,.127.116.193.235.258C304.3,50.965,303.943,50.835,304.062,50.708ZM302.527,50c0,.127.119.193.241.258C302.768,50.257,302.527,50.127,302.527,50ZM184.088,62.631c.708-.388,1.535-.711,2.36-1.159C185.623,62.308,186.093,62.373,184.088,62.631Zm-54.969,6.7c0,.065.119.13.235.13C129.238,69.464,129,69.334,129.119,69.334Zm107.11-18.949c0,.13,0,.2.122.258C236.351,50.58,236.113,50.515,236.229,50.385Zm-2.357.323c0,.127.119.193.238.258C234.111,50.9,233.873,50.77,233.873,50.708Zm-16.516,3.737c-1.3.323-1.062-2.255-.119-1.031,0,.065,0,.2.119.2C217.357,53.739,217.946,54.317,217.357,54.444Zm1.535-3.351c0,.065,0,.13.116.13C219.009,51.223,218.773,51.158,218.892,51.093Zm-18.878-2.32c1.771-.966.592-.643,2.952-.385-1.89,1.739,1.414.9-1.535,1.1-2.949,0,.827.773-1.416-.711Zm21.119-8.312c5.779-1.807,8.255-3.161,12.031-.907C229.861,39.943,224.317,42.005,221.133,40.461Zm23.357-1.677c-3.541-.261-7.079-.646-10.618-.966,2.122-.261,7.076-1.419,8.847-.9,2.949.839.827-.581,1.771,1.87Zm-51.314,4.062c0,.062.116.125.235.125C193.411,42.971,193.057,42.909,193.176,42.846Zm78.448-15.212c.943-1.031,4.244,1.093.943.193C272.448,27.827,270.323,29.246,271.623,27.634Zm-34.686,4.122c0,.065.122.065.235.13C237.173,31.886,236.822,31.821,236.938,31.756Zm-6.014.839c-.708,1.1-.943,1.935-2.595,2.516-2.833.966-1.3.708-2.714-1.739,3.892-1.615,1.3-.643,5.309-.776Zm169.637-15.4V19.7c-2.6-.193-2.125-.13-3.776-1.609a20.436,20.436,0,0,1,3.776-.9Zm-168.1,13.535c.708-.9,2.83.966.827.323C233.284,31.05,231.159,32.274,232.456,30.727Zm10.5-7.153c0-2.065,1.181-.323.473-.068l-.119.068C242.955,23.637,242.955,25.441,242.955,23.574Zm59.572-10.83c-.824.646-1.533,1.289-2.238,1.8C301.584,12.291,299.935,13.58,302.527,12.744Zm5.312-1.227c-.119.13-.473,0-.473.261-.354.646-4.246.9-4.839.966,1.416-1.161,3.657-1.161,5.312-1.227ZM558.989,247.033c.119-.065.235-.258.354-.065,0,.13.235-.127.235-.127,1.535-.453,3.068-.839,4.719-1.354.943,4.062,2.711,3.867,4.011,8.057.116.388.589,2.32.708,2.513a2.828,2.828,0,0,0,.589,1.031c.116.13.235.323.354.45s.235.323.354.453c3.776,4.9-.238,1.224,5.544,7.283,5.425,5.737,1.649,7.541,4.247,13.408,3.538,7.926,2.476-1.161,8.02,11.278,1.535,3.351,6.255,7.348,6.136,12.5-.235,6.38.235.9.235,8.314,0,7.991.238-3.867,2.244,5.671-2.006-1.482-1.89-1.739-3.541-3.547-4.6-5.218-2.125-3.028-6.722-6.572-8.728-6.768-3.068-11.408-8.377-15.275-3.419-2.578-3.654-2.773-4.127-6.768-.708-4.575.473-5.221-1.3-9.088-1.771-3.8-5.074-5.8-5.666-8.637-.705-3.224,1.3-.323-1.178-4.64-4.127-7.221-3.654-7.6-6.841-14.889Zm-3.776-6.572a.564.564,0,0,0,.238.32C555.451,240.719,555.213,240.523,555.213,240.461Zm-45.179-45.442c0-2.193,1.176-.065.354.065h0C509.916,195.019,510.035,196.824,510.035,195.019Zm19.581-2.32c0,.127.119.193.235.258C529.85,192.892,529.5,192.764,529.615,192.7Zm-12.031-5.609A17.14,17.14,0,0,1,516.049,186,17.149,17.149,0,0,0,517.584,187.09Zm8.963-2.062c.827-.836,2.949,1.55.827.518C527.374,185.546,525.369,186.382,526.547,185.028Zm-5.306-1.093c0,.127.116.193.235.258C521.476,184.192,521.241,184,521.241,183.934Zm12.15.643c.824-.581,0-.385,1.652-.581a21.015,21.015,0,0,1,2.833-.062C535.986,186.7,536.576,185.546,533.391,184.577Zm88.238-.385c3.541.513,1.181-.388,3.068,1.8,0,0,2.125,3.221,2.241,3.414C622.219,189.09,621.629,189.283,621.629,184.192Zm-10.618-12.7c-5.663-2.513,2.833,1.354-2.949-2.643.354,5.159,5.9,8.38,10.5,11.992,0,8.442.705,2.385,2.122,8.312.943,2.966,2.006,6,3.068,9.025,2.36-1.547,1.652-1.416,3.892,8.7-8.377.513-8.377,1.479-13.683-3.031-6.49-5.737-3.776-6.833-3.541-8.507.354-1.677.708-1.484,3.657-3.609-2.476-4-1.887-1.1-4.72-4.059-3.776-3.935-8.255-11.538-11.088-16.374,2.36-5.091-.589-2.385,2.949-4.836,2-1.416,4.011-2.771,6.017-4.125,3.068-1.609,5.074-.643,9.909,0,0,11.669-4.011-.128-6.136,9.153Zm-63.346-7.8c1.176,1.742,2.476,3.416,3.776,5.156,6.249.2,5.541-2.64,9.552-2.771,4.955-.193.592.261,8.023,4.19,5.544,3.159,8.731,7.541,12.62,12.635-6.958,3.156-1.887,1.612-10.615,1.612-1.652,0-6.841-2.385-8.731-3.289-.47-.258-.943-.45-1.533-.708-11.207-5.348-14.629,5.929-24.068.578-2.83-1.609-.705.258-2-2.062A3.458,3.458,0,0,1,534.1,178c-.473-1.609-.238-.065-.238-1.609a8.125,8.125,0,0,1,.708-2.708,9.787,9.787,0,0,0,.705-.9c4.252-7.606,3.309-2.773,4.13-8.572.354-2.708,1.062-2.9,3.068-5.609,4.13,1.416-.354,1.612,8.261,2-1.892,2.643-1.3.513-3.068,3.091Zm18.164-2.382c-2.833.646-5.66,1.416-8.374,2.06-.708-3.8.943-4.445,6.017-5.541q1.942-.2,3.889-.578c-.235.062-.47,0-.589.255-.116.773-.354-.516-1.062,1.034-1.3,2.64.119-.906.119,2.771ZM472.992,116.9c.824-.841,2.949,1.416.824.448C473.817,117.351,471.811,118.382,472.992,116.9Zm1.533-3.286c0,.127.119.19.235.255C474.76,113.872,474.406,113.676,474.525,113.617Zm85.292-41.125c-.827.453-1.652.966-2.36,1.419.354,4.125,4.011,6.445-2.479,3.416-2.241.385-4.363.643-6.487.836,1.652.966,3.419,1.935,5.19,2.836-3.187-.193-2.36-.13-4.482-1.1-.235-.062-2.125-.9-2.36-1.031-.589-.255-1.771-.385-2.833-2.771-1.3-3.286.827.13-2.36-5.864,10.144,1.742,6.02,4.382,18.17,2.255Zm-19.7-3.159c0,.13.119.2.235.261C540.349,69.529,540.114,69.4,540.114,69.334Zm-25.6-18.754c0,.127.116.19.235.255C514.751,50.835,514.4,50.708,514.516,50.58Z" transform="translate(3.865 28.975)" fill="#121212" fill-rule="evenodd"/>
        <path id="Path_5871" data-name="Path 5871" d="M490.957,637.626H466.419a238.2,238.2,0,0,1-52.9,28.249q-10.661,2.465-21.453,4.232a229.213,229.213,0,0,0,69.884-32.482H431.612c-16.076,15.524-33.55,27.193-52.009,34.286q-6.038.761-12.1,1.3c21.527-5.935,41.873-18.167,60.414-35.589h-34.34c-10.482,17.031-21.974,29.414-34.161,36.218-2.187.147-4.377.263-6.564.365,13.47-5.493,26.21-18.125,37.771-36.584H356.283c-3.569,17.586-7.53,30.221-11.768,36.867l-2.555.043c4.215-5.309,8.244-18.076,11.935-36.909H320.844c3.708,18.841,7.8,31.615,12.147,36.918l-2.193-.034c-4.144-6.637-8.059-19.28-11.623-36.884H284.467c11.589,18.5,24.36,31.144,37.864,36.618q-3.28-.144-6.561-.348c-12.221-6.79-23.745-19.2-34.252-36.269H247.176c18.635,17.507,39.1,29.773,60.739,35.677q-6.068-.527-12.113-1.275c-18.575-7.082-36.15-18.79-52.32-34.4H213.15a228.892,228.892,0,0,0,70.79,32.722q-10.814-1.725-21.524-4.161a237.793,237.793,0,0,1-53.742-28.561H183.83q-2.456-1.254-4.9-2.552h26.176A287.2,287.2,0,0,1,148.68,580q-6.557-8.371-12.646-17.312H86.351l-2.278-2.555h50.235a361.393,361.393,0,0,1-37.091-72.382H35.32L34.054,485.2h62.2a405.149,405.149,0,0,1-19.428-72.379H8.53l-.575-2.558H76.394a433.012,433.012,0,0,1-5.8-69.654H.014L0,338.054H70.6a432.153,432.153,0,0,1,6.5-73.742H7.952l.578-2.555H77.553A402.766,402.766,0,0,1,97.8,189.374H34.165l1.263-2.552H98.8a358.433,358.433,0,0,1,38.286-72.382H84.148l2.258-2.555h52.459q4.772-6.778,9.816-13.227A284.493,284.493,0,0,1,210.873,39.5H178.709q2.439-1.3,4.9-2.552h31.051c26.524-17.575,55.649-29.637,86.448-35Q313.854.578,326.675.167a338.624,338.624,0,0,1,48,1.9C405.224,7.49,434.116,19.5,460.442,36.949h30.283q2.456,1.254,4.9,2.552H464.227a284.485,284.485,0,0,1,62.19,59.156q5.044,6.446,9.816,13.227H588.2l2.278,2.555H538.015A358.568,358.568,0,0,1,576.3,186.821h62.938l1.266,2.552h-63.21a403.011,403.011,0,0,1,20.255,72.382h68.482l.572,2.555H598a432.155,432.155,0,0,1,6.5,73.742h70.057l-.014,2.555H604.5a432.689,432.689,0,0,1-5.8,69.654h67.9l-.581,2.558H598.27a404.673,404.673,0,0,1-19.431,72.38h61.552l-1.263,2.552H577.882a361.408,361.408,0,0,1-37.1,72.382h49.623l-2.258,2.555H539.066q-6.089,8.932-12.649,17.312a287.344,287.344,0,0,1-56.428,55.071h25.864q-2.439,1.3-4.9,2.552ZM342.513,1.677c4.473,5.218,8.705,17.394,12.552,35.272h32.921C374.17,16.269,358.767,3.8,342.513,1.677Zm13.1,37.824c3.875,18.728,7.346,43.3,10.263,72.382h55.261q-1.882-6.161-3.864-12.037C409.161,75.813,399.858,55.4,389.657,39.5H355.609Zm10.518,74.938c2.147,21.827,3.989,46.136,5.462,72.382h66.924a610.527,610.527,0,0,0-16.6-72.382H366.127Zm5.6,74.935c1.252,22.81,2.232,47.051,2.892,72.382h73.088c-2-25.343-4.963-49.589-8.765-72.382H371.728Zm2.955,74.938c.6,23.737.918,48.414.929,73.742h75.1c-.031-25.334-1-50.011-2.81-73.742H374.683Zm.929,76.3c-.008,23.881-.286,47.178-.8,69.654h73.4c1.612-22.47,2.476-45.771,2.507-69.654h-75.1Zm-.867,72.212c-.606,25.3-1.516,49.541-2.7,72.379h67.567c3.683-22.83,6.521-47.071,8.411-72.379H374.745Zm-2.83,74.932c-1.382,26.19-3.122,50.493-5.159,72.382H423.11A626.428,626.428,0,0,0,439.2,487.753H371.915Zm-5.4,74.938q-.816,8.592-1.688,16.663c-2.354,21.666-5.054,40.445-8.04,55.719H392.2c9.2-15.258,17.637-34.238,25.068-56.258q2.63-7.814,5.091-16.125H366.518Zm-47.853,72.382c-3.722-19.074-7.051-43.6-9.85-72.382H252.734q2.46,8.3,5.1,16.125c7.428,22.02,15.861,41,25.068,56.258h35.768Zm-10.091-74.938c-2.091-21.909-3.875-46.2-5.295-72.382H235.9a625.869,625.869,0,0,0,16.085,72.382ZM303.147,485.2c-1.215-22.844-2.15-47.085-2.771-72.38h-73.3c1.887,25.309,4.728,49.55,8.408,72.38h67.663Zm-2.833-74.938c-.533-22.479-.816-45.773-.827-69.654h-75.1c.031,23.884.892,47.184,2.5,69.654h73.428Zm-.827-72.21c.009-25.329.32-50.006.9-73.742h-73.2c-1.807,23.731-2.776,48.408-2.807,73.742h75.1Zm.966-76.3c.64-25.334,1.592-49.581,2.813-72.382H236.153c-3.8,22.793-6.762,47.04-8.762,72.382h73.062Zm2.949-74.935c1.436-26.261,3.232-50.572,5.323-72.382H253.19a609.958,609.958,0,0,0-16.6,72.382H303.4Zm5.572-74.938q.629-6.438,1.295-12.578c2.564-23.64,5.547-43.841,8.861-59.8H285.439c-10.2,15.9-19.5,36.312-27.609,60.346q-1.984,5.873-3.867,12.037h55.011Zm10.694-74.935C323.53,19.1,327.819,6.932,332.4,1.7c-16.193,2.187-31.527,14.649-45.295,35.249h32.558Zm53.388,301.105c-.011-25.334-.314-50.014-.878-73.742H302.94c-.581,23.731-.89,48.408-.9,73.742Zm-.941-76.3c-.626-25.348-1.55-49.589-2.739-72.382H305.819c-1.218,22.8-2.17,47.04-2.813,72.382h69.11Zm-2.873-74.935c-1.4-26.295-3.15-50.6-5.19-72.382H311.286c-2.1,21.8-3.892,46.108-5.326,72.382h63.283Zm-5.428-74.938c-2.8-29.3-6.142-53.887-9.867-72.382H321.507c-3.178,15.844-6.11,36.161-8.705,60.076q-.646,6-1.266,12.306h52.28ZM353.422,36.949c-4.779-22.765-10.167-35.595-15.875-35.595-5.49,0-10.765,12.824-15.518,35.595h31.394ZM302.039,340.608c.011,23.887.28,47.181.785,69.654h69.428c.518-22.473.793-45.771.8-69.654H302.039Zm.844,72.213c.589,25.309,1.476,49.555,2.626,72.379h63.983c1.181-22.833,2.094-47.074,2.7-72.379H302.884Zm2.756,74.932c1.348,26.213,3.042,50.524,5.025,72.382H364.2c2.037-21.878,3.779-46.181,5.164-72.382H305.64Zm5.261,74.938c2.683,28.963,5.878,53.516,9.45,72.382h34.034c2.872-15.2,5.533-34.085,7.909-55.989q.858-7.938,1.663-16.394H310.9ZM355.428,2.8c12.663,5.728,24.629,17.448,35.558,34.144h32.442c-20.8-18.323-43.751-30.2-68-34.144Zm37.2,36.7c10.011,15.9,19.122,36.014,27.054,59.535q2.116,6.263,4.113,12.847h55.873q-3.127-6.042-6.422-11.813C459.484,75.937,443.657,55.453,426.272,39.5H392.626Zm31.938,74.938A615.729,615.729,0,0,1,441.1,186.821h67.989a412.841,412.841,0,0,0-28.111-72.382H424.563Zm16.963,74.935c3.793,22.8,6.745,47.048,8.742,72.382h74.377a520.94,520.94,0,0,0-14.83-72.382Zm8.938,74.938c1.807,23.737,2.773,48.414,2.8,73.742h76.467a587.145,587.145,0,0,0-4.754-73.742H450.464Zm2.8,76.3c-.028,23.878-.89,47.179-2.5,69.654H525.5a587.758,587.758,0,0,0,4.241-69.654Zm-2.688,72.212c-1.881,25.3-4.717,49.538-8.385,72.38h68.753a526.155,526.155,0,0,0,14.23-72.38h-74.6Zm-8.8,74.932a629.927,629.927,0,0,1-16.017,72.382h57.252a420.26,420.26,0,0,0,27.229-72.382H441.779ZM425.02,562.691q-2.571,8.732-5.34,16.935c-7.266,21.55-15.524,40.235-24.555,55.448h35.467c15.691-15.312,30.04-34.366,42.651-56.482q4.394-7.708,8.5-15.9H425.02ZM279.972,635.073c-9.031-15.212-17.289-33.9-24.555-55.448q-2.766-8.193-5.337-16.935H193.351q4.1,8.188,8.5,15.9c12.615,22.116,26.966,41.17,42.654,56.482h35.467Zm-30.637-74.938a631.126,631.126,0,0,1-16.017-72.382H164.856a420.029,420.029,0,0,0,27.227,72.382h57.252ZM232.9,485.2c-3.671-22.841-6.5-47.082-8.388-72.38H149.921A525.322,525.322,0,0,0,164.15,485.2H232.9Zm-8.575-74.938c-1.609-22.476-2.473-45.776-2.5-69.654H145.36a587.757,587.757,0,0,0,4.244,69.654h74.725Zm-2.5-72.21c.034-25.329,1-50.006,2.807-73.742H150.113a586.585,586.585,0,0,0-4.754,73.742h76.465Zm3-76.3c2-25.334,4.952-49.578,8.745-72.382H165.28a520.946,520.946,0,0,0-14.83,72.382h74.377ZM234,186.821a616.317,616.317,0,0,1,16.53-72.382H194.122a413.291,413.291,0,0,0-28.111,72.382H234Zm17.3-74.938q2-6.582,4.113-12.847c7.935-23.521,17.045-43.632,27.054-59.535H248.824c-17.382,15.952-33.21,36.436-46.974,60.569q-3.285,5.771-6.419,11.813H251.3Zm32.807-74.935c10.932-16.7,22.9-28.416,35.558-34.144-24.247,3.941-47.2,15.822-68,34.144ZM372.64,4.306C392,10.456,410.351,21.6,427.249,36.949h28.521c-25.617-16.4-53.6-27.635-83.13-32.643Zm57.371,35.2C446.8,55.354,462.1,75.388,475.462,98.813q3.629,6.365,7.068,13.071h50.589q-4.249-5.962-8.708-11.657c-18.952-24.2-40.768-44.739-64.734-60.725H430.011Zm53.816,74.938a416.894,416.894,0,0,1,27.907,72.382h61.827a355.087,355.087,0,0,0-38.643-72.382Zm28.632,74.935a524.845,524.845,0,0,1,14.765,72.382h67.725a400.373,400.373,0,0,0-20.382-72.382H512.459Zm15.1,74.938a588.955,588.955,0,0,1,4.737,73.742h69.654a429.442,429.442,0,0,0-6.535-73.742H527.555Zm4.737,76.3a589.772,589.772,0,0,1-4.227,69.654h68.051a430.255,430.255,0,0,0,5.83-69.654H532.292Zm-4.541,72.212a529.709,529.709,0,0,1-14.161,72.38h62.533a401.967,401.967,0,0,0,19.558-72.38H527.751ZM512.89,487.754a424.571,424.571,0,0,1-27.04,72.382h51.873a357.8,357.8,0,0,0,37.431-72.382H512.89Zm-28.295,74.938q-4.4,8.847-9.133,17.159c-12.235,21.456-26.1,40.065-41.249,55.224h31.411a283.125,283.125,0,0,0,58.788-56.637q5.979-7.632,11.567-15.745H484.595ZM240.884,635.074c-15.144-15.159-29.011-33.768-41.246-55.224q-4.734-8.3-9.133-17.159H139.122q5.588,8.108,11.567,15.745a283.055,283.055,0,0,0,58.788,56.637h31.408Zm-51.635-74.938a424.326,424.326,0,0,1-27.043-72.382H99.946a357.938,357.938,0,0,0,37.428,72.382h51.875ZM161.51,485.2a529.28,529.28,0,0,1-14.164-72.379H79.416A402.192,402.192,0,0,0,98.974,485.2H161.51Zm-14.479-74.938a590.394,590.394,0,0,1-4.227-69.654H73.153a430.255,430.255,0,0,0,5.83,69.654h68.048Zm-4.227-72.21a589.489,589.489,0,0,1,4.737-73.742H79.685a429.723,429.723,0,0,0-6.533,73.742H142.8Zm5.071-76.3a524.022,524.022,0,0,1,14.759-72.382h-62.1a400.149,400.149,0,0,0-20.385,72.382h67.728Zm15.487-74.935a416.889,416.889,0,0,1,27.909-72.382H140.181a354.8,354.8,0,0,0-38.643,72.382Zm29.207-74.938q3.438-6.7,7.068-13.071c13.357-23.425,28.66-43.459,45.45-59.312H215.419c-23.969,15.986-45.779,36.524-64.731,60.725q-4.466,5.69-8.711,11.657h50.592Zm55.275-74.935C264.745,21.6,283.1,10.457,302.456,4.306c-29.527,5.008-57.513,16.244-83.127,32.643Z" transform="translate(0.006 0.014)" fill="#121212"/>
      </g>
    </g>
  </g>
</svg>
