<?xml version="1.0" encoding="utf-8"?>
<!-- Generator: Adobe Illustrator 25.2.0, SVG Export Plug-In . SVG Version: 6.00 Build 0)  -->
<svg version="1.1" id="Layer_1" xmlns="http://www.w3.org/2000/svg" xmlns:xlink="http://www.w3.org/1999/xlink" x="0px" y="0px"
	 viewBox="0 0 16 16" style="enable-background:new 0 0 16 16;" xml:space="preserve">
<style type="text/css">
	.st0{fill:#333333;}
</style>
<desc>Created with Sketch.</desc>
<g>
	<path class="st0" d="M15.7,0.3c0.4,0.4,0.3,1-0.1,1.5l-0.1,0.1L9.4,8l6.2,6.2c0.5,0.5,0.5,1.2,0.2,1.6c-0.4,0.4-1,0.3-1.5-0.1
		l-0.1-0.1L8,9.4l-6.2,6.2c-0.5,0.5-1.2,0.5-1.6,0.2c-0.4-0.4-0.3-1,0.1-1.5l0.1-0.1L6.6,8L0.4,1.8c-0.5-0.5-0.5-1.2-0.2-1.6
		c0.4-0.4,1-0.3,1.5,0.1l0.1,0.1L8,6.6l6.2-6.2C14.7-0.1,15.4-0.1,15.7,0.3z"/>
</g>
</svg>
