<?xml version="1.0" encoding="utf-8"?>
<!-- Generator: Adobe Illustrator 25.2.0, SVG Export Plug-In . SVG Version: 6.00 Build 0)  -->
<svg version="1.1" id="Layer_1" xmlns="http://www.w3.org/2000/svg" xmlns:xlink="http://www.w3.org/1999/xlink" x="0px" y="0px"
	 viewBox="0 0 69 58" style="enable-background:new 0 0 69 58;" xml:space="preserve">
<style type="text/css">
	.st0{fill:#FFFFFF;}
</style>
<desc>Created with Sketch.</desc>
<g>
	<g>
		<path class="st0" d="M5,0h59c2.8,0,5,2.2,5,5l0,0c0,2.8-2.2,5-5,5H5c-2.8,0-5-2.2-5-5l0,0C0,2.2,2.2,0,5,0z"/>
		<path class="st0" d="M5,24h59c2.8,0,5,2.2,5,5l0,0c0,2.8-2.2,5-5,5H5c-2.8,0-5-2.2-5-5l0,0C0,26.2,2.2,24,5,24z"/>
		<path class="st0" d="M5,48h59c2.8,0,5,2.2,5,5l0,0c0,2.8-2.2,5-5,5H5c-2.8,0-5-2.2-5-5l0,0C0,50.2,2.2,48,5,48z"/>
	</g>
</g>
</svg>
